<svg width="24" height="24" viewBox="0 0 24 24" fill="none" xmlns="http://www.w3.org/2000/svg">
<path d="M21.534 7.11287C22.5043 6.4184 23.34 5.55293 24 4.55887C23.107 4.94987 22.157 5.20887 21.165 5.33487C22.195 4.72395 22.9653 3.75657 23.33 2.61587C22.3654 3.18765 21.3102 3.59045 20.21 3.80687C19.5356 3.08605 18.6599 2.58481 17.6969 2.36831C16.7338 2.15181 15.7279 2.23007 14.8099 2.59291C13.8919 2.95575 13.1043 3.5864 12.5495 4.40284C11.9947 5.21928 11.6983 6.18376 11.699 7.17087C11.699 7.56087 11.732 7.93587 11.813 8.29287C7.723 8.09287 4.103 6.13287 1.671 3.14587C1.23125 3.90105 0.998746 4.75898 0.997 5.63287C0.997 7.33687 1.874 8.84687 3.183 9.72187C2.40415 9.70087 1.64176 9.49303 0.96 9.11587V9.16987C0.961284 10.3061 1.35396 11.4072 2.07193 12.2878C2.7899 13.1684 3.78933 13.7748 4.902 14.0049C4.501 14.1149 4.065 14.1669 3.612 14.1669C3.297 14.1669 2.979 14.1489 2.681 14.0829C3.318 16.0309 5.128 17.4639 7.278 17.5109C5.53602 18.8725 3.38801 19.6112 1.177 19.6089C0.774 19.6089 0.387 19.5909 0 19.5419C2.24994 20.9914 4.87155 21.7583 7.548 21.7499C16.231 21.7499 21.89 14.5059 21.534 7.11287Z" fill="#ECF2ED"/>
</svg>
