<svg width="24" height="24" viewBox="0 0 24 24" fill="none" xmlns="http://www.w3.org/2000/svg">
<path d="M17 4H7C4.24 4 2 6.24 2 9V19C2 21.76 4.24 24 7 24H17C19.76 24 22 21.76 22 19V9C22 6.24 19.76 4 17 4ZM12 19C9.24 19 7 16.76 7 14C7 11.24 9.24 9 12 9C14.76 9 17 11.24 17 14C17 16.76 14.76 19 12 19ZM17.35 9.62C16.8 9.62 16.35 9.17 16.35 8.62C16.35 8.07 16.8 7.62 17.35 7.62C17.9 7.62 18.35 8.07 18.35 8.62C18.35 9.17 17.9 9.62 17.35 9.62Z" fill="white"/>
<path d="M12 17C13.6569 17 15 15.6569 15 14C15 12.3431 13.6569 11 12 11C10.3431 11 9 12.3431 9 14C9 15.6569 10.3431 17 12 17Z" fill="white"/>
</svg>
