<svg width="24" height="24" viewBox="0 0 24 24" fill="none" xmlns="http://www.w3.org/2000/svg">
<path d="M23.7886 8.20567L16.5099 15.4375L23.7886 22.6693C23.9202 22.3943 24 22.0903 24 21.7656V9.10938C24 8.78467 23.9202 8.48069 23.7886 8.20567ZM21.8906 7H2.10938C1.78467 7 1.48069 7.07983 1.20567 7.21141L10.5086 16.4675C11.3312 17.29 12.6688 17.29 13.4914 16.4675L22.7943 7.21141C22.5193 7.07983 22.2153 7 21.8906 7ZM0.211406 8.20567C0.0798281 8.48069 0 8.78467 0 9.10938V21.7656C0 22.0903 0.0798281 22.3944 0.211406 22.6693L7.49011 15.4375L0.211406 8.20567Z" fill="white"/>
<path d="M15.5155 16.4316L14.4855 17.4616C13.115 18.8322 10.8848 18.8322 9.51421 17.4616L8.48427 16.4316L1.20557 23.6635C1.48058 23.795 1.78457 23.8749 2.10927 23.8749H21.8905C22.2152 23.8749 22.5192 23.795 22.7942 23.6635L15.5155 16.4316Z" fill="white"/>
</svg>
