<svg width="24" height="24" viewBox="0 0 24 24" fill="none" xmlns="http://www.w3.org/2000/svg">
<path d="M21.534 7.11336C22.5043 6.41888 23.34 5.55341 24 4.55936C23.107 4.95036 22.157 5.20936 21.165 5.33536C22.195 4.72444 22.9653 3.75705 23.33 2.61636C22.3654 3.18814 21.3102 3.59093 20.21 3.80736C19.5356 3.08654 18.6599 2.5853 17.6969 2.3688C16.7338 2.1523 15.7279 2.23056 14.8099 2.5934C13.8919 2.95624 13.1043 3.58688 12.5495 4.40333C11.9947 5.21977 11.6983 6.18425 11.699 7.17136C11.699 7.56136 11.732 7.93636 11.813 8.29336C7.723 8.09336 4.103 6.13336 1.671 3.14636C1.23125 3.90154 0.998746 4.75947 0.997 5.63336C0.997 7.33736 1.874 8.84736 3.183 9.72236C2.40415 9.70135 1.64176 9.49352 0.96 9.11636V9.17036C0.961284 10.3066 1.35396 11.4076 2.07193 12.2883C2.7899 13.1689 3.78933 13.7753 4.902 14.0054C4.501 14.1154 4.065 14.1674 3.612 14.1674C3.297 14.1674 2.979 14.1494 2.681 14.0834C3.318 16.0314 5.128 17.4644 7.278 17.5114C5.53602 18.873 3.38801 19.6117 1.177 19.6094C0.774 19.6094 0.387 19.5914 0 19.5424C2.24994 20.9919 4.87155 21.7588 7.548 21.7504C16.231 21.7504 21.89 14.5064 21.534 7.11336Z" fill="#ECF2ED"/>
</svg>
