<svg width="24" height="24" viewBox="0 0 24 24" fill="none" xmlns="http://www.w3.org/2000/svg">
<g clip-path="url(#clip0_216_1197)">
<path d="M23.5056 6.22901C23.229 5.20083 22.4184 4.39034 21.3903 4.11347C19.5122 3.59961 11.9998 3.59961 11.9998 3.59961C11.9998 3.59961 4.48757 3.59961 2.60949 4.09401C1.60122 4.37058 0.770816 5.20102 0.494252 6.22901C0 8.10694 0 12.0016 0 12.0016C0 12.0016 0 15.9158 0.494252 17.7741C0.771078 18.8021 1.58146 19.6127 2.60964 19.8895C4.50733 20.4035 12.0001 20.4035 12.0001 20.4035C12.0001 20.4035 19.5122 20.4035 21.3903 19.9091C22.4185 19.6324 23.229 18.8219 23.5059 17.7939C24 15.9158 24 12.0213 24 12.0213C24 12.0213 24.0197 8.1069 23.5056 6.22901ZM9.60792 15.5996V8.40353L15.8549 12.0015L9.60792 15.5996Z" fill="#ECF2ED"/>
</g>
<defs>
<clipPath id="clip0_216_1197">
<rect width="24" height="24" fill="white"/>
</clipPath>
</defs>
</svg>
