<svg width="24" height="24" viewBox="0 0 24 24" fill="none" xmlns="http://www.w3.org/2000/svg">
<g clip-path="url(#clip0_216_1196)">
<path d="M18 0H6.00034C2.70072 0 0.000488281 2.70023 0.000488281 5.99985V18.0001C0.000488281 21.2989 2.70072 24 6.00034 24H18C21.2997 24 23.9999 21.2989 23.9999 18.0001V5.99985C23.9999 2.70023 21.2997 0 18 0ZM21.9999 18.0001C21.9999 20.2051 20.2062 22 18 22H6.00034C3.7951 22 2.00054 20.2051 2.00054 18.0001V5.99985C2.00054 3.79432 3.7951 2.00005 6.00034 2.00005H18C20.2062 2.00005 21.9999 3.79432 21.9999 5.99985V18.0001Z" fill="#ECF2ED"/>
<path d="M18.5009 6.99993C19.3293 6.99993 20.0009 6.32837 20.0009 5.49996C20.0009 4.67156 19.3293 4 18.5009 4C17.6725 4 17.001 4.67156 17.001 5.49996C17.001 6.32837 17.6725 6.99993 18.5009 6.99993Z" fill="#ECF2ED"/>
<path d="M12.0001 6C8.68576 6 6.00024 8.68581 6.00024 11.9999C6.00024 15.3127 8.68576 18.0003 12.0001 18.0003C15.3135 18.0003 18 15.3127 18 11.9999C18 8.68581 15.3135 6 12.0001 6ZM12.0001 16.0002C9.79123 16.0002 8.00029 14.2093 8.00029 11.9999C8.00029 9.7904 9.79123 8.00005 12.0001 8.00005C14.209 8.00005 15.9999 9.7904 15.9999 11.9999C15.9999 14.2093 14.209 16.0002 12.0001 16.0002Z" fill="#ECF2ED"/>
</g>
<defs>
<clipPath id="clip0_216_1196">
<rect width="24" height="24" fill="white"/>
</clipPath>
</defs>
</svg>
