<svg width="24" height="24" viewBox="0 0 24 24" fill="none" xmlns="http://www.w3.org/2000/svg">
<g clip-path="url(#clip0_216_1195)">
<path d="M3.19885 0.0166016C1.43632 0.0166016 0.00129049 1.45135 0 3.21527C0 4.97919 1.43503 6.41421 3.19885 6.41421C4.96203 6.41421 6.39632 4.97919 6.39632 3.21527C6.39632 1.45154 4.96194 0.0166016 3.19885 0.0166016ZM5.59962 7.69945H0.797708C0.743373 7.69945 0.68957 7.71015 0.639372 7.73095C0.589175 7.75174 0.543565 7.78222 0.505149 7.82065C0.466733 7.85907 0.436262 7.90469 0.415477 7.95489C0.394693 8.0051 0.384001 8.0589 0.384013 8.11323V23.5692C0.384013 23.6789 0.427599 23.7841 0.505182 23.8617C0.582764 23.9393 0.687989 23.9829 0.797708 23.9829H5.59953C5.70925 23.9828 5.81447 23.9392 5.89206 23.8617C5.96966 23.7841 6.01327 23.6789 6.01332 23.5692V8.11323C6.01336 8.05889 6.00268 8.00508 5.9819 7.95486C5.96113 7.90465 5.93066 7.85902 5.89224 7.82059C5.85382 7.78217 5.8082 7.75169 5.75799 7.7309C5.70778 7.71011 5.65397 7.69942 5.59962 7.69945ZM17.8755 7.51749C16.1182 7.51749 14.574 8.05258 13.6316 8.92514V8.11323C13.6316 7.88463 13.4464 7.69945 13.2179 7.69945H8.61163C8.55729 7.69945 8.50348 7.71015 8.45328 7.73095C8.40308 7.75174 8.35746 7.78222 8.31904 7.82064C8.28061 7.85907 8.25014 7.90468 8.22934 7.95489C8.20855 8.00509 8.19784 8.0589 8.19784 8.11323V23.5692C8.19784 23.6235 8.20855 23.6773 8.22934 23.7275C8.25014 23.7777 8.28062 23.8233 8.31905 23.8617C8.35747 23.9001 8.40309 23.9306 8.45329 23.9514C8.50349 23.9722 8.5573 23.9829 8.61163 23.9829H13.4089C13.5187 23.9828 13.6239 23.9392 13.7015 23.8617C13.7791 23.7841 13.8227 23.6789 13.8227 23.5692V15.9224C13.8227 13.7283 14.2263 12.3684 16.2403 12.3684C18.2245 12.3708 18.373 13.8291 18.373 16.0534V23.5692C18.373 23.6235 18.3837 23.6773 18.4045 23.7275C18.4253 23.7777 18.4558 23.8233 18.4943 23.8617C18.5327 23.9001 18.5783 23.9306 18.6285 23.9514C18.6787 23.9722 18.7325 23.9829 18.7869 23.9829H23.5864C23.6961 23.9828 23.8013 23.9392 23.8789 23.8617C23.9565 23.7841 24.0001 23.6789 24.0001 23.5692V15.0909C24 11.5648 23.3039 7.51749 17.8755 7.51749Z" fill="#ECF2ED"/>
</g>
<defs>
<clipPath id="clip0_216_1195">
<rect width="24" height="24" fill="white"/>
</clipPath>
</defs>
</svg>
